# xmcd
# 
# Track frame offsets:
#     150
#     17419
#     35587
#     59294
# 
# Disc length: 1003
# 
# Revision: 0
# Processed by: cddbd v1.5.2PL0 Copyright (c) Steve Scherf et al.
# Submitted via: fre:ac v1.0.17
# 
DISCID=2803e904
DTITLE=miyukah - highway flyway
DYEAR=2002
DGENRE=Funk
TTITLE0=highway flyway
TTITLE1=brand new day
TTITLE2=highway flyway - break mix
TTITLE3=highway flyway - acapella
EXTD=feat. Juliane Wilde
EXTT0=
EXTT1=
EXTT2=
EXTT3=
PLAYORDER=
